Patient4_TMGait_0pt4_03_right_04_EMG.mot
version=1
nRows=33
nColumns=33
inDegrees=no
endheader
time	1LAddLong	2LGlutMax	3LGlutMed	4LIliopsoas	5LSemiMemb	6LBicFemLong	7LRecFem	8LVastMed	9LVastLat	10LGasMed	11LTibAnt	12lTibPost	13LPeroneusLong	14LSol	15LExtDigLong	16LFlexDigLong	17RAddLong	18RGlutMax	19RGlutMed	20RIliopsoas	21RSemiMemb	22RBicFemLong	23RRecFem	24RVastMed	25RVastLat	26RGasMed	27RTibAnt	28RTibPost	29RPeroneusLong	30RSol	31RExtDigLong	32RFlexDigLong
4.627	-0.010529	-0.22751	0.031128	-0.010529	0.011292	-0.028839	0.16983	-0.007172	0.13886	0.016327	0.002136	0.006104	-0.065155	0.045319	-0.028839	0.00061	0.031891	-0.66193	-0.74356	-0.048828	-0.16571	-0.13229	0.46524	0.030212	-0.078735	-0.018616	0.009155	-0.010223	-0.039978	0.40863	-0.009766	0.021515
4.628	-0.005798	-0.22903	0.021057	-0.018921	0.005035	-0.040588	0.21225	-0.012665	0.13825	0.027466	-0.000763	0.013275	-0.063934	0.077209	-0.005035	0.00824	-0.001373	-0.69046	-1.0991	0.14236	-0.37476	-0.090942	0.46738	0.19287	-0.12329	-0.030975	-0.008545	-0.023804	0.06012	0.29526	-0.009155	0.016479
4.629	-0.01236	-0.2449	0.043335	0.000305	0.010529	-0.023804	0.1944	-0.007477	0.13153	0.016479	0.006409	0.01297	-0.050964	0.081024	0.013275	0.002136	-0.019226	-0.64102	-1.0582	0.17609	-0.28732	-0.083618	0.44739	0.19226	-0.20203	-0.017548	0.011597	-0.030365	0.29862	0.03479	-0.003662	0.016785
4.63	-0.00824	-0.20096	0.030212	0.011749	0.00946	-0.022278	0.16388	-0.007172	0.12878	0.011749	-0.012512	0.010681	-0.060883	0.085144	0.10239	0.007935	-0.089417	-0.71121	-0.35263	0.087738	0.061188	-0.04364	0.30441	0.16769	-0.11765	-0.036621	0.018005	-0.068817	0.38391	-0.074615	-0.007629	0.019836
4.631	-0.016022	-0.16113	0.029297	0.016632	0.012207	-0.041809	0.14618	-0.010223	0.12894	0.014191	-0.013123	0.013885	-0.060577	0.070953	0.10834	0.005035	-0.098877	-0.70541	0.56656	0.083313	0.0177	-0.035095	0.19821	0.28229	0.14832	-0.030823	0.05188	-0.18723	0.20844	-0.15656	-0.002136	0.002594
4.632	-0.024109	-0.17395	0.04425	0.020447	0.007324	-0.021973	0.1355	-0.002441	0.12589	0.017853	-0.02182	0.015411	-0.072784	0.097046	0.019073	-0.001678	-0.037842	-0.77484	-0.18219	0.11093	-0.094757	-0.15472	0.39566	0.22705	0.044403	0.001831	0.11566	0.013733	-0.26779	-0.45303	0.005493	0.005493
4.633	-0.014801	-0.15991	0.042572	0.031738	0.005341	-0.019836	0.13702	-0.006256	0.12283	0.001373	0.049133	0.008698	-0.070953	0.1442	-0.052185	0.006104	-0.014343	-0.8934	-0.40802	0.13611	-0.058746	-0.13412	0.53253	0.07782	-0.06012	0.028381	0.050964	0.023193	-0.062714	-0.69687	-0.00351	-0.000916
4.634	-0.021362	-0.11551	0.05249	0.027466	0.014038	-0.021515	0.12543	-0.004425	0.12894	0.001984	0.032806	0.014801	-0.050812	0.1358	-0.052795	-0.005798	-0.018005	-0.87723	-0.74753	0.20691	-0.07843	-0.077362	0.52582	-0.092926	-0.070953	0.027313	0.054626	-0.22659	-0.30685	-0.41321	-0.006866	-0.002136
4.635	-0.017548	-0.067291	0.075226	0.014954	0.007477	-0.025635	0.17212	-0.006104	0.13229	0.002441	0.031281	0.017548	-0.053711	0.10544	-0.088959	-0.007477	-0.015106	-0.82459	-1.3181	0.26855	-0.082855	-0.037384	0.52811	-0.081635	-0.045471	0.032349	0.054932	0.13901	-0.031891	-0.026398	-0.006561	-0.001373
4.636	-0.010376	-0.05722	0.044861	0.002899	0.011292	-0.028992	0.24979	0.000305	0.14313	0.005035	0.022583	0.014343	-0.048676	0.1059	-0.11765	-0.01236	-0.010376	-0.81757	-1.6069	0.14908	-0.15396	0.031281	0.46432	-0.071869	-0.036316	0.038605	0.12985	0.094604	-1.2758	0.17181	-0.008545	-0.00061
4.637	-0.00946	-0.050201	0.066986	0.002747	0.012207	-0.028381	0.25894	-0.000916	0.15182	-0.002899	0.029297	0.016937	-0.066528	0.091095	-0.12985	-0.013275	-0.010376	-0.9581	-0.5632	-0.051117	-0.058746	-0.03479	0.52048	0	-0.055847	0.045013	0.25772	-0.073395	-1.5002	0.6163	-0.006561	-0.010223
4.638	-0.007935	-0.051727	0.066528	0.002136	0.007172	-0.037384	0.1709	-0.001984	0.15732	0.000916	0.018768	0.014038	-0.068359	0.1326	-0.076752	-0.010223	0.005188	-1.0893	0.21668	-0.088959	0.039368	-0.12466	0.51498	-0.030975	-0.043793	0.042114	0.16327	-0.35217	0.30365	0.35736	-0.003357	-0.00473
4.639	-0.004425	-0.045319	0.063782	-0.00061	0.00824	-0.039825	0.071106	0.007629	0.17212	-0.010376	-0.007172	0.02182	-0.006561	0.086975	-0.022583	-0.018616	0.026398	-1.3171	-0.47852	-0.024567	0.029449	-0.11353	0.50323	-0.086365	-0.052185	-0.066223	0.001526	0.26566	1.553	-0.078888	-0.002441	0.005188
4.64	-0.001831	-0.015259	0.066681	0.001831	0.002899	-0.029602	0.028076	0.009155	0.17548	-0.003204	-0.029144	0.010223	-0.022888	0.045471	-0.02655	-0.011597	0.008392	-1.4194	-0.79239	0.05188	0.022278	-0.15472	0.44189	-0.10162	-0.10284	-0.12573	-0.10559	0.18845	1.3565	-0.1062	-0.00473	0.007782
4.641	-0.002289	0.010681	0.078278	0.010834	0.009003	-0.019531	-0.019989	0.007935	0.18539	-0.012817	-0.028992	0.014038	-0.054779	0.047607	-0.027313	-0.013428	0.018005	-1.3486	-0.34164	-0.029144	0.02182	-0.19608	0.40649	-0.065002	-0.11902	-0.032654	0.010223	0.055237	1.3786	-0.068817	-0.006561	0.009155
4.642	0.005035	0.013123	0.074005	0.018768	0.007324	-0.034637	0.014191	0.009003	0.17624	-0.019379	-0.057373	0.014343	-0.029602	0.029449	-0.045471	-0.014191	0.03418	-1.4188	-0.13428	-0.12054	0.00946	-0.20691	0.39825	0.000458	-0.057983	-0.007019	-0.063629	-0.011139	0.45517	-0.063477	-0.00824	0.016937
4.643	-0.005188	0.070343	0.060577	0.040894	0.001526	-0.017548	0.036926	0.007019	0.15488	-0.038757	-0.045471	0.014648	-0.029907	0.007629	-0.046844	-0.008087	0.020599	-1.3933	-0.51773	-0.12405	-0.17761	-0.25497	0.3096	0.12665	-0.030518	0.00412	-0.2005	-0.12451	1.1787	-0.16785	-0.007477	0.012207
4.644	-0.005646	0.066528	0.066528	0.039368	0.00473	-0.0177	0.002594	0.010681	0.14008	-0.030518	0.083618	0.010986	-0.039368	0.006104	-0.014343	-0.014191	0.031586	-1.3177	-0.77164	-0.11826	-0.14984	-0.20905	0.1976	0.12329	-0.069885	-0.019226	-0.18326	-0.1152	0.49103	-0.4184	-0.009155	0.01358
4.645	-0.005035	0.090027	0.040894	0.003052	0.00473	-0.014954	-0.043335	0.007782	0.12405	-0.042572	0.070648	0.00412	-0.069275	-0.001831	-0.001678	0.000153	-0.041199	-1.2642	-0.42404	-0.092316	-0.24551	-0.112	0.027771	0.055847	-0.094299	0.005951	-0.083466	-0.079956	-0.74051	-0.63156	-0.014801	0.002136
4.646	-0.009308	0.11917	0.027313	-0.016174	0.007935	-0.002594	-0.04425	0.003204	0.1326	0.012512	0.002899	0.007172	-0.051117	0.008087	0.037079	-0.000916	-0.067444	-1.1832	-0.69214	-0.10574	-0.11368	0.075226	-0.075836	0.06073	0.00351	0.002136	0.06485	0.14023	-1.2447	-0.21957	-0.007935	0.009766
4.647	-0.010223	0.1329	-0.00473	-0.017395	0.00824	-0.018158	-0.054016	0.002747	0.12543	-0.022736	0.008087	0.004425	-0.021973	0.031128	0.065155	0.000916	-0.044403	-1.1856	-0.61249	-0.1181	0.005188	0.29144	0.043945	0.1059	0.022736	-0.01709	0.086517	0.075531	-1.3762	0.36102	-0.006104	0.019379
4.648	-0.007629	0.1268	-0.006561	0.006561	0.010071	-0.02121	-0.075073	-0.015869	0.12024	-0.026245	0.024719	0.007324	-0.047607	0.079346	0.096741	-0.006866	-0.044403	-1.1264	-0.55985	-0.088348	-0.064087	0.34409	0.099182	0.021057	-0.08255	-0.030975	0.071869	0.057526	-1.0527	0.37994	-0.007172	0.011139
4.649	-0.002289	0.096741	-0.015106	-0.000153	0.009003	-0.013428	-0.10773	-0.015259	0.13184	-0.036774	0.043335	0.010681	-0.056915	0.088806	0.11414	0.003662	-0.044098	-1.0583	-0.95627	0.004272	0.005035	0.34805	0.097351	-0.015106	-0.084991	-0.057373	0.067749	-0.014343	-0.81696	0.19241	-0.008698	0.011444
4.65	0.008087	0.1181	-0.029297	0.008392	0.009003	-0.020905	-0.077209	-0.007935	0.11978	-0.021057	0.040588	0.008698	-0.073547	0.065308	0.084686	0.006104	-0.028839	-0.88837	-0.38086	0.013885	-0.002899	0.49393	0.12558	-0.089874	-0.10208	-0.10391	0.046692	-0.028229	0.40451	-0.020905	-0.004578	0.009003
4.651	0.00946	0.091095	-0.019073	-0.006866	0.002594	-0.020142	0.041656	0.002899	0.11688	-0.013123	0.049896	0.006561	-0.071716	0.085754	0.035553	0.006104	-0.004578	-0.81024	-0.12863	0.064087	0.04776	0.37369	0.15045	-0.11078	-0.16937	-0.12909	0.13382	-0.031738	1.2459	0.012054	-0.010223	0.00885
4.652	0.012817	0.037689	-0.032654	-0.007324	0.004272	-0.019226	0.077667	0.001984	0.10742	-0.029449	0.005493	0.004272	-0.045319	0.079041	0.009766	0.014496	0.022888	-0.64957	-0.18112	0.097504	0.096741	0.18982	0.16464	-0.066376	-0.19745	-0.10147	0.030823	-0.034332	1.1174	0.0914	-0.004578	0.007172
4.653	0.016174	0.004883	-0.043488	-0.005035	0.011292	-0.011597	0.037231	0.008545	0.10483	-0.011749	-0.063782	0.006256	-0.00351	0.078735	-0.019684	0.010223	0.026703	-0.49072	-0.39078	0.1294	0.076141	0.15274	0.082855	-0.095062	-0.16754	-0.025787	-0.10437	-0.073853	1.1517	0.047455	-0.001068	0.008087
4.654	0.011139	-0.026093	-0.063629	0.011902	-0.003967	-0.014801	0.092926	0.005798	0.13184	-0.019073	-0.042877	0.004425	-0.003204	0.048523	-0.057831	0.00885	-0.014343	-0.45593	-0.15854	0.11307	-0.07843	0.21713	-0.035858	0.13596	-0.11719	0.071106	0.046234	-0.25024	-0.20309	-0.41962	-0.008087	0.013123
4.655	0.01297	-0.032196	-0.11429	0	0.026245	-0.021515	0.12817	0.001678	0.12024	-0.021362	0.018921	0.006561	-0.040131	0.056915	-0.065613	0.019379	-0.031738	-0.35858	-0.33936	0.078125	-0.21698	0.18707	-0.025177	0.11856	-0.007172	0.010071	0.3154	-0.1474	-0.60288	-0.4921	-0.003357	0.009003
4.656	0.014648	-0.090637	-0.14618	0.00946	0.010681	-0.023041	0.14374	-0.001984	0.13657	-0.027161	0.026093	0.005188	-0.022278	0.030518	0.008698	0.030823	0.007935	-0.40802	-1.5964	0.068665	-0.029907	0.087433	-0.052643	0.12558	0.069885	-0.004272	0.29648	0.075531	-0.27649	-0.034332	-0.00824	0.018463
4.657	0.00885	-0.071564	-0.15762	-0.001831	0.005035	-0.014648	0.10696	-0.003357	0.14114	-0.013733	-0.001984	0.006256	-0.002136	0.054321	0.011749	0.032959	0.018158	-0.3183	-1.8039	-0.079346	-0.019073	-0.018311	-0.007935	0.1828	0.14832	0.009308	0.11032	0.19012	-0.097351	-0.068207	-0.003204	0.023804
4.658	0.006409	-0.11688	-0.16434	0.011139	0.011139	-0.02655	0.1471	-0.00351	0.12985	0.003052	-0.15289	0.009766	0.022125	0.070648	0.13733	0.035095	-0.006409	-0.22217	-0.85159	-0.062103	-0.24292	0.035706	-0.079803	0.037537	0.052948	0.15213	-0.18982	0.062866	-0.95184	-0.17731	-0.005646	0.031433
4.659	0.006409	-0.13596	-0.17624	0.016479	0.008087	-0.019226	0.25192	0.003357	0.11307	0.011902	-0.12009	0.016632	-0.004272	0.11658	0.22278	0.031586	-0.047913	-0.18601	-0.9317	-0.098724	-0.1796	0.024109	-0.14877	0.000458	-0.061493	0.14847	-0.121	0.026398	-1.4493	0.064697	-0.006714	0.034485
